<svg xmlns="http://www.w3.org/2000/svg" viewBox="0 0 1410 1000" width="1410" height="1000" role="img">
  <defs>
    <linearGradient id="sky" x1="0" y1="0" x2="0" y2="1"><stop offset="0" stop-color="#e3d2ad"/><stop offset="1" stop-color="#cdb487"/></linearGradient>
    <filter id="grain"><feTurbulence type="fractalNoise" baseFrequency="0.9" numOctaves="2" stitchTiles="stitch"/><feColorMatrix type="saturate" values="0"/></filter>
    <radialGradient id="vig" cx="50%" cy="42%" r="75%"><stop offset="60%" stop-color="#000" stop-opacity="0"/><stop offset="100%" stop-color="#000" stop-opacity="0.16"/></radialGradient>
  </defs>
  <rect width="1410" height="1000" fill="#e9dcc0"/>
  <rect width="1410" height="1000" fill="#e9dcc0"/><g opacity="0.9"><rect x="120" y="120" width="1170" height="760" fill="url(#sky)"/><circle cx="845" cy="336" r="111" fill="#b07a3a"/><path d="M 120 880 L 120 620 L 470 480 L 820 600 L 1120 460 L 1290 580 L 1290 880 Z" fill="#6f5331"/></g><rect x="60" y="60" width="1290" height="880" fill="none" stroke="#3f2f1d" stroke-width="6" stroke-dasharray="2 26" stroke-linecap="round" opacity="0.8"/><g fill="none" stroke="#3f2f1d" stroke-width="6" opacity="0.5"><circle cx="1156" cy="311" r="92"/><circle cx="1156" cy="311" r="70"/><line x1="1226" y1="311" x2="1248" y2="311"/><line x1="1216.6" y1="346" x2="1235.7" y2="357"/><line x1="1191" y1="371.6" x2="1202" y2="390.7"/><line x1="1156" y1="381" x2="1156" y2="403"/><line x1="1121" y1="371.6" x2="1110" y2="390.7"/><line x1="1095.4" y1="346" x2="1076.3" y2="357"/><line x1="1086" y1="311" x2="1064" y2="311"/><line x1="1095.4" y1="276" x2="1076.3" y2="265"/><line x1="1121" y1="250.4" x2="1110" y2="231.3"/><line x1="1156" y1="241" x2="1156" y2="219"/><line x1="1191" y1="250.4" x2="1202" y2="231.3"/><line x1="1216.6" y1="276" x2="1235.7" y2="265"/></g><text x="705" y="850" text-anchor="middle" font-family="Georgia, serif" font-size="46" letter-spacing="14" fill="#3f2f1d" opacity="0.8">POST CARD</text>
  <rect width="1410" height="1000" fill="url(#vig)"/>
  <rect width="1410" height="1000" filter="url(#grain)" opacity="0.06"/>
  <rect x="28" y="28" width="1354" height="944" fill="none" stroke="#3f2f1d" stroke-width="3" opacity="0.4"/>
  <g transform="translate(1260 868)" opacity="0.8">
    <rect width="96" height="104" rx="6" fill="none" stroke="#3f2f1d" stroke-width="3" stroke-dasharray="2 9"/>
    <text x="48" y="56" text-anchor="middle" font-family="Georgia, serif" font-size="46" font-weight="700" fill="#3f2f1d">P</text>
    <text x="48" y="84" text-anchor="middle" font-family="Georgia, serif" font-size="13" letter-spacing="2" fill="#3f2f1d">POSTED</text>
  </g>
</svg>