<svg xmlns="http://www.w3.org/2000/svg" viewBox="0 0 1410 1000" width="1410" height="1000" role="img">
  <defs>
    <linearGradient id="sky" x1="0" y1="0" x2="0" y2="1"><stop offset="0" stop-color="#f4d8b6"/><stop offset="1" stop-color="#e7b489"/></linearGradient>
    <filter id="grain"><feTurbulence type="fractalNoise" baseFrequency="0.9" numOctaves="2" stitchTiles="stitch"/><feColorMatrix type="saturate" values="0"/></filter>
    <radialGradient id="vig" cx="50%" cy="42%" r="75%"><stop offset="60%" stop-color="#000" stop-opacity="0"/><stop offset="100%" stop-color="#000" stop-opacity="0.16"/></radialGradient>
  </defs>
  <rect width="1410" height="1000" fill="#f1e8d8"/>
  <rect width="1410" height="1000" fill="url(#sky)"/><circle cx="467" cy="303" r="105" fill="#dd7a3a" opacity="0.92"/><path d="M -20 1000 L -20 449 L -20 408.7 L 221.7 505.1 L 463.3 502.6 L 705 493.6 L 946.7 398.8 L 1188.3 466.2 L 1430 483.3 L 1430 1000 Z" fill="#b9743f"/><path d="M -20 1000 L -20 568 L -20 504.8 L 221.7 651.2 L 463.3 645.3 L 705 651.5 L 946.7 529.5 L 1188.3 551.2 L 1430 497 L 1430 1000 Z" fill="#8a4a33"/><path d="M -20 1000 L -20 707 L -20 581 L 221.7 736.5 L 463.3 619.3 L 705 598 L 946.7 764.2 L 1188.3 661.2 L 1430 641.6 L 1430 1000 Z" fill="#4a2f2a"/><g fill="#ffffff" opacity="0.75"><circle cx="1408" cy="197" r="6"/><circle cx="34" cy="279" r="3"/><circle cx="226" cy="295" r="7"/><circle cx="234" cy="288" r="3"/><circle cx="256" cy="27" r="9"/><circle cx="297" cy="41" r="5"/><circle cx="1196" cy="589" r="6"/><circle cx="741" cy="129" r="7"/><circle cx="1324" cy="473" r="4"/><circle cx="751" cy="393" r="5"/><circle cx="230" cy="141" r="9"/><circle cx="82" cy="354" r="7"/><circle cx="1354" cy="252" r="7"/><circle cx="171" cy="564" r="3"/><circle cx="633" cy="16" r="6"/><circle cx="214" cy="56" r="9"/><circle cx="891" cy="594" r="4"/><circle cx="1187" cy="449" r="3"/><circle cx="1259" cy="479" r="7"/><circle cx="812" cy="258" r="7"/><circle cx="217" cy="261" r="4"/><circle cx="1372" cy="588" r="5"/><circle cx="850" cy="118" r="5"/><circle cx="879" cy="609" r="8"/><circle cx="1044" cy="335" r="7"/><circle cx="151" cy="406" r="7"/><circle cx="371" cy="96" r="9"/><circle cx="442" cy="75" r="7"/></g>
  <rect width="1410" height="1000" fill="url(#vig)"/>
  <rect width="1410" height="1000" filter="url(#grain)" opacity="0.06"/>
  <rect x="28" y="28" width="1354" height="944" fill="none" stroke="#4a2f2a" stroke-width="3" opacity="0.4"/>
  <g transform="translate(1260 868)" opacity="0.8">
    <rect width="96" height="104" rx="6" fill="none" stroke="#4a2f2a" stroke-width="3" stroke-dasharray="2 9"/>
    <text x="48" y="56" text-anchor="middle" font-family="Georgia, serif" font-size="46" font-weight="700" fill="#4a2f2a">P</text>
    <text x="48" y="84" text-anchor="middle" font-family="Georgia, serif" font-size="13" letter-spacing="2" fill="#4a2f2a">POSTED</text>
  </g>
</svg>