<svg xmlns="http://www.w3.org/2000/svg" viewBox="0 0 1410 1000" width="1410" height="1000" role="img">
  <defs>
    <linearGradient id="sky" x1="0" y1="0" x2="0" y2="1"><stop offset="0" stop-color="#e7d6e2"/><stop offset="1" stop-color="#c7a9c2"/></linearGradient>
    <filter id="grain"><feTurbulence type="fractalNoise" baseFrequency="0.9" numOctaves="2" stitchTiles="stitch"/><feColorMatrix type="saturate" values="0"/></filter>
    <radialGradient id="vig" cx="50%" cy="42%" r="75%"><stop offset="60%" stop-color="#000" stop-opacity="0"/><stop offset="100%" stop-color="#000" stop-opacity="0.16"/></radialGradient>
  </defs>
  <rect width="1410" height="1000" fill="#efe9dc"/>
  <rect width="1410" height="1000" fill="url(#sky)"/><circle cx="287" cy="234" r="130" fill="#e0a45a" opacity="0.92"/><path d="M -20 1000 L -20 434 L -20 483.8 L 221.7 361.1 L 463.3 458.8 L 705 337 L 946.7 329.3 L 1188.3 454.8 L 1430 419.4 L 1430 1000 Z" fill="#9b7790"/><path d="M -20 1000 L -20 596 L -20 574.8 L 221.7 611.8 L 463.3 542.2 L 705 579 L 946.7 589.5 L 1188.3 533 L 1430 607.3 L 1430 1000 Z" fill="#6b4d66"/><path d="M -20 1000 L -20 737 L -20 678.9 L 221.7 688.4 L 463.3 665.1 L 705 759.1 L 946.7 674.5 L 1188.3 756.8 L 1430 769.6 L 1430 1000 Z" fill="#3e2d3c"/><g fill="#ffffff" opacity="0.75"><circle cx="1117" cy="478" r="4"/><circle cx="949" cy="350" r="6"/><circle cx="949" cy="70" r="7"/><circle cx="694" cy="611" r="6"/><circle cx="552" cy="174" r="5"/><circle cx="1232" cy="90" r="9"/><circle cx="305" cy="435" r="3"/><circle cx="321" cy="426" r="9"/><circle cx="456" cy="214" r="4"/><circle cx="1249" cy="438" r="7"/><circle cx="900" cy="176" r="5"/><circle cx="768" cy="278" r="4"/><circle cx="557" cy="321" r="9"/><circle cx="1199" cy="367" r="9"/><circle cx="371" cy="418" r="6"/><circle cx="1011" cy="517" r="6"/><circle cx="1018" cy="475" r="8"/><circle cx="204" cy="215" r="4"/><circle cx="1219" cy="348" r="5"/><circle cx="106" cy="333" r="6"/><circle cx="714" cy="395" r="7"/><circle cx="1036" cy="48" r="5"/><circle cx="745" cy="286" r="5"/><circle cx="732" cy="537" r="8"/><circle cx="435" cy="404" r="8"/><circle cx="379" cy="370" r="3"/></g>
  <rect width="1410" height="1000" fill="url(#vig)"/>
  <rect width="1410" height="1000" filter="url(#grain)" opacity="0.06"/>
  <rect x="28" y="28" width="1354" height="944" fill="none" stroke="#3e2d3c" stroke-width="3" opacity="0.4"/>
  <g transform="translate(1260 868)" opacity="0.8">
    <rect width="96" height="104" rx="6" fill="none" stroke="#3e2d3c" stroke-width="3" stroke-dasharray="2 9"/>
    <text x="48" y="56" text-anchor="middle" font-family="Georgia, serif" font-size="46" font-weight="700" fill="#3e2d3c">P</text>
    <text x="48" y="84" text-anchor="middle" font-family="Georgia, serif" font-size="13" letter-spacing="2" fill="#3e2d3c">POSTED</text>
  </g>
</svg>