<svg xmlns="http://www.w3.org/2000/svg" viewBox="0 0 1410 1000" width="1410" height="1000" role="img">
  <defs>
    <linearGradient id="sky" x1="0" y1="0" x2="0" y2="1"><stop offset="0" stop-color="#dde7ec"/><stop offset="1" stop-color="#bcd0da"/></linearGradient>
    <filter id="grain"><feTurbulence type="fractalNoise" baseFrequency="0.9" numOctaves="2" stitchTiles="stitch"/><feColorMatrix type="saturate" values="0"/></filter>
    <radialGradient id="vig" cx="50%" cy="42%" r="75%"><stop offset="60%" stop-color="#000" stop-opacity="0"/><stop offset="100%" stop-color="#000" stop-opacity="0.16"/></radialGradient>
  </defs>
  <rect width="1410" height="1000" fill="#eef0ec"/>
  <rect width="1410" height="1000" fill="url(#sky)"/><circle cx="867" cy="314" r="130" fill="#e6c453" opacity="0.92"/><path d="M -20 1000 L -20 412 L -20 388.9 L 221.7 462 L 463.3 350.8 L 705 439.7 L 946.7 419.4 L 1188.3 382.2 L 1430 345.7 L 1430 1000 Z" fill="#9fb2ba"/><path d="M -20 1000 L -20 578 L -20 458.3 L 221.7 520.1 L 463.3 608.2 L 705 595.7 L 946.7 461.8 L 1188.3 452.8 L 1430 566.6 L 1430 1000 Z" fill="#6f8a93"/><path d="M -20 1000 L -20 742 L -20 818.4 L 221.7 635.7 L 463.3 648.2 L 705 668.4 L 946.7 668.8 L 1188.3 651.5 L 1430 811.3 L 1430 1000 Z" fill="#46606a"/><g fill="#ffffff" opacity="0.75"><circle cx="1066" cy="239" r="3"/><circle cx="198" cy="92" r="8"/><circle cx="1153" cy="423" r="5"/><circle cx="1290" cy="101" r="9"/><circle cx="1267" cy="261" r="8"/><circle cx="958" cy="28" r="4"/><circle cx="993" cy="194" r="4"/><circle cx="1204" cy="306" r="7"/><circle cx="563" cy="156" r="5"/><circle cx="36" cy="392" r="3"/><circle cx="1182" cy="0" r="5"/><circle cx="715" cy="276" r="7"/><circle cx="554" cy="351" r="4"/><circle cx="569" cy="543" r="3"/><circle cx="1341" cy="138" r="6"/><circle cx="199" cy="332" r="8"/><circle cx="1079" cy="465" r="6"/><circle cx="947" cy="533" r="4"/><circle cx="77" cy="615" r="8"/><circle cx="693" cy="79" r="4"/><circle cx="1128" cy="563" r="9"/><circle cx="1369" cy="155" r="5"/><circle cx="764" cy="588" r="4"/><circle cx="33" cy="156" r="9"/><circle cx="104" cy="216" r="5"/><circle cx="1081" cy="318" r="8"/><circle cx="136" cy="461" r="8"/><circle cx="1074" cy="129" r="7"/><circle cx="131" cy="37" r="4"/><circle cx="762" cy="38" r="7"/><circle cx="776" cy="219" r="6"/><circle cx="1191" cy="514" r="7"/><circle cx="1034" cy="84" r="9"/><circle cx="319" cy="500" r="7"/></g>
  <rect width="1410" height="1000" fill="url(#vig)"/>
  <rect width="1410" height="1000" filter="url(#grain)" opacity="0.06"/>
  <rect x="28" y="28" width="1354" height="944" fill="none" stroke="#46606a" stroke-width="3" opacity="0.4"/>
  <g transform="translate(1260 868)" opacity="0.8">
    <rect width="96" height="104" rx="6" fill="none" stroke="#46606a" stroke-width="3" stroke-dasharray="2 9"/>
    <text x="48" y="56" text-anchor="middle" font-family="Georgia, serif" font-size="46" font-weight="700" fill="#46606a">P</text>
    <text x="48" y="84" text-anchor="middle" font-family="Georgia, serif" font-size="13" letter-spacing="2" fill="#46606a">POSTED</text>
  </g>
</svg>