<svg xmlns="http://www.w3.org/2000/svg" viewBox="0 0 1410 1000" width="1410" height="1000" role="img">
  <defs>
    <linearGradient id="sky" x1="0" y1="0" x2="0" y2="1"><stop offset="0" stop-color="#2f3b46"/><stop offset="1" stop-color="#1b2228"/></linearGradient>
    <filter id="grain"><feTurbulence type="fractalNoise" baseFrequency="0.9" numOctaves="2" stitchTiles="stitch"/><feColorMatrix type="saturate" values="0"/></filter>
    <radialGradient id="vig" cx="50%" cy="42%" r="75%"><stop offset="60%" stop-color="#000" stop-opacity="0"/><stop offset="100%" stop-color="#000" stop-opacity="0.16"/></radialGradient>
  </defs>
  <rect width="1410" height="1000" fill="#e4e4e2"/>
  <rect width="1410" height="1000" fill="url(#sky)"/><circle cx="374" cy="264" r="71" fill="#d9a441" opacity="0.9"/><rect x="-10" y="609" width="90" height="351" fill="#566571"/><rect x="4" y="631" width="11" height="14" fill="#d9a441" opacity="0.65"/><rect x="30" y="665" width="11" height="14" fill="#d9a441" opacity="0.65"/><rect x="4" y="699" width="11" height="14" fill="#d9a441" opacity="0.65"/><rect x="4" y="801" width="11" height="14" fill="#d9a441" opacity="0.65"/><rect x="4" y="869" width="11" height="14" fill="#d9a441" opacity="0.65"/><rect x="4" y="903" width="11" height="14" fill="#d9a441" opacity="0.65"/><rect x="88" y="734" width="127" height="226" fill="#384149"/><rect x="154" y="756" width="11" height="14" fill="#d9a441" opacity="0.65"/><rect x="180" y="756" width="11" height="14" fill="#d9a441" opacity="0.65"/><rect x="102" y="790" width="11" height="14" fill="#d9a441" opacity="0.65"/><rect x="128" y="790" width="11" height="14" fill="#d9a441" opacity="0.65"/><rect x="128" y="824" width="11" height="14" fill="#d9a441" opacity="0.65"/><rect x="154" y="824" width="11" height="14" fill="#d9a441" opacity="0.65"/><rect x="102" y="892" width="11" height="14" fill="#d9a441" opacity="0.65"/><rect x="180" y="892" width="11" height="14" fill="#d9a441" opacity="0.65"/><rect x="223" y="523" width="109" height="437" fill="#1f262b"/><rect x="263" y="545" width="11" height="14" fill="#d9a441" opacity="0.65"/><rect x="289" y="545" width="11" height="14" fill="#d9a441" opacity="0.65"/><rect x="237" y="579" width="11" height="14" fill="#d9a441" opacity="0.65"/><rect x="237" y="613" width="11" height="14" fill="#d9a441" opacity="0.65"/><rect x="263" y="613" width="11" height="14" fill="#d9a441" opacity="0.65"/><rect x="289" y="613" width="11" height="14" fill="#d9a441" opacity="0.65"/><rect x="237" y="647" width="11" height="14" fill="#d9a441" opacity="0.65"/><rect x="263" y="647" width="11" height="14" fill="#d9a441" opacity="0.65"/><rect x="289" y="647" width="11" height="14" fill="#d9a441" opacity="0.65"/><rect x="263" y="681" width="11" height="14" fill="#d9a441" opacity="0.65"/><rect x="289" y="681" width="11" height="14" fill="#d9a441" opacity="0.65"/><rect x="289" y="715" width="11" height="14" fill="#d9a441" opacity="0.65"/><rect x="237" y="749" width="11" height="14" fill="#d9a441" opacity="0.65"/><rect x="289" y="749" width="11" height="14" fill="#d9a441" opacity="0.65"/><rect x="237" y="783" width="11" height="14" fill="#d9a441" opacity="0.65"/><rect x="263" y="783" width="11" height="14" fill="#d9a441" opacity="0.65"/><rect x="263" y="817" width="11" height="14" fill="#d9a441" opacity="0.65"/><rect x="289" y="817" width="11" height="14" fill="#d9a441" opacity="0.65"/><rect x="237" y="851" width="11" height="14" fill="#d9a441" opacity="0.65"/><rect x="237" y="885" width="11" height="14" fill="#d9a441" opacity="0.65"/><rect x="289" y="885" width="11" height="14" fill="#d9a441" opacity="0.65"/><rect x="340" y="735" width="62" height="225" fill="#566571"/><rect x="354" y="757" width="11" height="14" fill="#d9a441" opacity="0.65"/><rect x="354" y="825" width="11" height="14" fill="#d9a441" opacity="0.65"/><rect x="410" y="378" width="72" height="582" fill="#384149"/><rect x="424" y="434" width="11" height="14" fill="#d9a441" opacity="0.65"/><rect x="450" y="434" width="11" height="14" fill="#d9a441" opacity="0.65"/><rect x="424" y="468" width="11" height="14" fill="#d9a441" opacity="0.65"/><rect x="450" y="468" width="11" height="14" fill="#d9a441" opacity="0.65"/><rect x="424" y="502" width="11" height="14" fill="#d9a441" opacity="0.65"/><rect x="424" y="536" width="11" height="14" fill="#d9a441" opacity="0.65"/><rect x="450" y="536" width="11" height="14" fill="#d9a441" opacity="0.65"/><rect x="424" y="570" width="11" height="14" fill="#d9a441" opacity="0.65"/><rect x="424" y="604" width="11" height="14" fill="#d9a441" opacity="0.65"/><rect x="424" y="638" width="11" height="14" fill="#d9a441" opacity="0.65"/><rect x="424" y="672" width="11" height="14" fill="#d9a441" opacity="0.65"/><rect x="450" y="706" width="11" height="14" fill="#d9a441" opacity="0.65"/><rect x="450" y="740" width="11" height="14" fill="#d9a441" opacity="0.65"/><rect x="424" y="774" width="11" height="14" fill="#d9a441" opacity="0.65"/><rect x="450" y="774" width="11" height="14" fill="#d9a441" opacity="0.65"/><rect x="450" y="808" width="11" height="14" fill="#d9a441" opacity="0.65"/><rect x="450" y="842" width="11" height="14" fill="#d9a441" opacity="0.65"/><rect x="490" y="583" width="140" height="377" fill="#1f262b"/><rect x="504" y="605" width="11" height="14" fill="#d9a441" opacity="0.65"/><rect x="556" y="605" width="11" height="14" fill="#d9a441" opacity="0.65"/><rect x="582" y="605" width="11" height="14" fill="#d9a441" opacity="0.65"/><rect x="504" y="639" width="11" height="14" fill="#d9a441" opacity="0.65"/><rect x="556" y="639" width="11" height="14" fill="#d9a441" opacity="0.65"/><rect x="582" y="639" width="11" height="14" fill="#d9a441" opacity="0.65"/><rect x="504" y="673" width="11" height="14" fill="#d9a441" opacity="0.65"/><rect x="582" y="673" width="11" height="14" fill="#d9a441" opacity="0.65"/><rect x="504" y="707" width="11" height="14" fill="#d9a441" opacity="0.65"/><rect x="556" y="707" width="11" height="14" fill="#d9a441" opacity="0.65"/><rect x="582" y="707" width="11" height="14" fill="#d9a441" opacity="0.65"/><rect x="504" y="741" width="11" height="14" fill="#d9a441" opacity="0.65"/><rect x="530" y="741" width="11" height="14" fill="#d9a441" opacity="0.65"/><rect x="556" y="741" width="11" height="14" fill="#d9a441" opacity="0.65"/><rect x="504" y="775" width="11" height="14" fill="#d9a441" opacity="0.65"/><rect x="556" y="775" width="11" height="14" fill="#d9a441" opacity="0.65"/><rect x="582" y="775" width="11" height="14" fill="#d9a441" opacity="0.65"/><rect x="504" y="809" width="11" height="14" fill="#d9a441" opacity="0.65"/><rect x="530" y="809" width="11" height="14" fill="#d9a441" opacity="0.65"/><rect x="556" y="809" width="11" height="14" fill="#d9a441" opacity="0.65"/><rect x="582" y="809" width="11" height="14" fill="#d9a441" opacity="0.65"/><rect x="530" y="843" width="11" height="14" fill="#d9a441" opacity="0.65"/><rect x="582" y="843" width="11" height="14" fill="#d9a441" opacity="0.65"/><rect x="530" y="877" width="11" height="14" fill="#d9a441" opacity="0.65"/><rect x="556" y="877" width="11" height="14" fill="#d9a441" opacity="0.65"/><rect x="582" y="877" width="11" height="14" fill="#d9a441" opacity="0.65"/><rect x="638" y="549" width="113" height="411" fill="#566571"/><rect x="704" y="571" width="11" height="14" fill="#d9a441" opacity="0.65"/><rect x="678" y="605" width="11" height="14" fill="#d9a441" opacity="0.65"/><rect x="652" y="673" width="11" height="14" fill="#d9a441" opacity="0.65"/><rect x="704" y="673" width="11" height="14" fill="#d9a441" opacity="0.65"/><rect x="652" y="707" width="11" height="14" fill="#d9a441" opacity="0.65"/><rect x="678" y="707" width="11" height="14" fill="#d9a441" opacity="0.65"/><rect x="704" y="707" width="11" height="14" fill="#d9a441" opacity="0.65"/><rect x="652" y="775" width="11" height="14" fill="#d9a441" opacity="0.65"/><rect x="678" y="775" width="11" height="14" fill="#d9a441" opacity="0.65"/><rect x="704" y="775" width="11" height="14" fill="#d9a441" opacity="0.65"/><rect x="652" y="809" width="11" height="14" fill="#d9a441" opacity="0.65"/><rect x="678" y="809" width="11" height="14" fill="#d9a441" opacity="0.65"/><rect x="652" y="843" width="11" height="14" fill="#d9a441" opacity="0.65"/><rect x="678" y="843" width="11" height="14" fill="#d9a441" opacity="0.65"/><rect x="678" y="877" width="11" height="14" fill="#d9a441" opacity="0.65"/><rect x="704" y="877" width="11" height="14" fill="#d9a441" opacity="0.65"/><rect x="759" y="698" width="138" height="262" fill="#384149"/><rect x="825" y="720" width="11" height="14" fill="#d9a441" opacity="0.65"/><rect x="851" y="720" width="11" height="14" fill="#d9a441" opacity="0.65"/><rect x="851" y="754" width="11" height="14" fill="#d9a441" opacity="0.65"/><rect x="773" y="788" width="11" height="14" fill="#d9a441" opacity="0.65"/><rect x="799" y="788" width="11" height="14" fill="#d9a441" opacity="0.65"/><rect x="825" y="788" width="11" height="14" fill="#d9a441" opacity="0.65"/><rect x="851" y="788" width="11" height="14" fill="#d9a441" opacity="0.65"/><rect x="773" y="822" width="11" height="14" fill="#d9a441" opacity="0.65"/><rect x="799" y="822" width="11" height="14" fill="#d9a441" opacity="0.65"/><rect x="825" y="822" width="11" height="14" fill="#d9a441" opacity="0.65"/><rect x="851" y="822" width="11" height="14" fill="#d9a441" opacity="0.65"/><rect x="825" y="856" width="11" height="14" fill="#d9a441" opacity="0.65"/><rect x="773" y="890" width="11" height="14" fill="#d9a441" opacity="0.65"/><rect x="799" y="890" width="11" height="14" fill="#d9a441" opacity="0.65"/><rect x="825" y="890" width="11" height="14" fill="#d9a441" opacity="0.65"/><rect x="851" y="890" width="11" height="14" fill="#d9a441" opacity="0.65"/><rect x="905" y="484" width="119" height="476" fill="#1f262b"/><rect x="971" y="506" width="11" height="14" fill="#d9a441" opacity="0.65"/><rect x="919" y="540" width="11" height="14" fill="#d9a441" opacity="0.65"/><rect x="971" y="540" width="11" height="14" fill="#d9a441" opacity="0.65"/><rect x="919" y="574" width="11" height="14" fill="#d9a441" opacity="0.65"/><rect x="971" y="574" width="11" height="14" fill="#d9a441" opacity="0.65"/><rect x="919" y="608" width="11" height="14" fill="#d9a441" opacity="0.65"/><rect x="971" y="608" width="11" height="14" fill="#d9a441" opacity="0.65"/><rect x="919" y="642" width="11" height="14" fill="#d9a441" opacity="0.65"/><rect x="945" y="642" width="11" height="14" fill="#d9a441" opacity="0.65"/><rect x="971" y="642" width="11" height="14" fill="#d9a441" opacity="0.65"/><rect x="945" y="676" width="11" height="14" fill="#d9a441" opacity="0.65"/><rect x="945" y="710" width="11" height="14" fill="#d9a441" opacity="0.65"/><rect x="971" y="710" width="11" height="14" fill="#d9a441" opacity="0.65"/><rect x="971" y="744" width="11" height="14" fill="#d9a441" opacity="0.65"/><rect x="919" y="778" width="11" height="14" fill="#d9a441" opacity="0.65"/><rect x="971" y="778" width="11" height="14" fill="#d9a441" opacity="0.65"/><rect x="971" y="812" width="11" height="14" fill="#d9a441" opacity="0.65"/><rect x="971" y="846" width="11" height="14" fill="#d9a441" opacity="0.65"/><rect x="919" y="880" width="11" height="14" fill="#d9a441" opacity="0.65"/><rect x="945" y="880" width="11" height="14" fill="#d9a441" opacity="0.65"/><rect x="1032" y="638" width="78" height="322" fill="#566571"/><rect x="1046" y="660" width="11" height="14" fill="#d9a441" opacity="0.65"/><rect x="1072" y="660" width="11" height="14" fill="#d9a441" opacity="0.65"/><rect x="1046" y="694" width="11" height="14" fill="#d9a441" opacity="0.65"/><rect x="1072" y="694" width="11" height="14" fill="#d9a441" opacity="0.65"/><rect x="1046" y="762" width="11" height="14" fill="#d9a441" opacity="0.65"/><rect x="1046" y="830" width="11" height="14" fill="#d9a441" opacity="0.65"/><rect x="1072" y="830" width="11" height="14" fill="#d9a441" opacity="0.65"/><rect x="1046" y="898" width="11" height="14" fill="#d9a441" opacity="0.65"/><rect x="1118" y="523" width="142" height="437" fill="#384149"/><rect x="1184" y="545" width="11" height="14" fill="#d9a441" opacity="0.65"/><rect x="1210" y="545" width="11" height="14" fill="#d9a441" opacity="0.65"/><rect x="1132" y="579" width="11" height="14" fill="#d9a441" opacity="0.65"/><rect x="1184" y="579" width="11" height="14" fill="#d9a441" opacity="0.65"/><rect x="1210" y="579" width="11" height="14" fill="#d9a441" opacity="0.65"/><rect x="1132" y="613" width="11" height="14" fill="#d9a441" opacity="0.65"/><rect x="1158" y="613" width="11" height="14" fill="#d9a441" opacity="0.65"/><rect x="1210" y="647" width="11" height="14" fill="#d9a441" opacity="0.65"/><rect x="1158" y="681" width="11" height="14" fill="#d9a441" opacity="0.65"/><rect x="1184" y="681" width="11" height="14" fill="#d9a441" opacity="0.65"/><rect x="1158" y="715" width="11" height="14" fill="#d9a441" opacity="0.65"/><rect x="1132" y="749" width="11" height="14" fill="#d9a441" opacity="0.65"/><rect x="1158" y="749" width="11" height="14" fill="#d9a441" opacity="0.65"/><rect x="1158" y="783" width="11" height="14" fill="#d9a441" opacity="0.65"/><rect x="1184" y="783" width="11" height="14" fill="#d9a441" opacity="0.65"/><rect x="1132" y="817" width="11" height="14" fill="#d9a441" opacity="0.65"/><rect x="1210" y="817" width="11" height="14" fill="#d9a441" opacity="0.65"/><rect x="1132" y="851" width="11" height="14" fill="#d9a441" opacity="0.65"/><rect x="1158" y="851" width="11" height="14" fill="#d9a441" opacity="0.65"/><rect x="1184" y="851" width="11" height="14" fill="#d9a441" opacity="0.65"/><rect x="1132" y="885" width="11" height="14" fill="#d9a441" opacity="0.65"/><rect x="1184" y="885" width="11" height="14" fill="#d9a441" opacity="0.65"/><rect x="1210" y="885" width="11" height="14" fill="#d9a441" opacity="0.65"/><rect x="1268" y="640" width="126" height="320" fill="#1f262b"/><rect x="1282" y="662" width="11" height="14" fill="#d9a441" opacity="0.65"/><rect x="1282" y="696" width="11" height="14" fill="#d9a441" opacity="0.65"/><rect x="1334" y="696" width="11" height="14" fill="#d9a441" opacity="0.65"/><rect x="1360" y="696" width="11" height="14" fill="#d9a441" opacity="0.65"/><rect x="1308" y="730" width="11" height="14" fill="#d9a441" opacity="0.65"/><rect x="1282" y="764" width="11" height="14" fill="#d9a441" opacity="0.65"/><rect x="1334" y="764" width="11" height="14" fill="#d9a441" opacity="0.65"/><rect x="1282" y="798" width="11" height="14" fill="#d9a441" opacity="0.65"/><rect x="1334" y="798" width="11" height="14" fill="#d9a441" opacity="0.65"/><rect x="1308" y="832" width="11" height="14" fill="#d9a441" opacity="0.65"/><rect x="1334" y="832" width="11" height="14" fill="#d9a441" opacity="0.65"/><rect x="1360" y="832" width="11" height="14" fill="#d9a441" opacity="0.65"/><rect x="1282" y="866" width="11" height="14" fill="#d9a441" opacity="0.65"/><rect x="1308" y="866" width="11" height="14" fill="#d9a441" opacity="0.65"/><rect x="1334" y="866" width="11" height="14" fill="#d9a441" opacity="0.65"/><rect x="1360" y="866" width="11" height="14" fill="#d9a441" opacity="0.65"/><rect x="1282" y="900" width="11" height="14" fill="#d9a441" opacity="0.65"/><rect x="1334" y="900" width="11" height="14" fill="#d9a441" opacity="0.65"/><rect x="1402" y="593" width="126" height="367" fill="#566571"/><rect x="1416" y="615" width="11" height="14" fill="#d9a441" opacity="0.65"/><rect x="1442" y="615" width="11" height="14" fill="#d9a441" opacity="0.65"/><rect x="1416" y="649" width="11" height="14" fill="#d9a441" opacity="0.65"/><rect x="1416" y="683" width="11" height="14" fill="#d9a441" opacity="0.65"/><rect x="1442" y="683" width="11" height="14" fill="#d9a441" opacity="0.65"/><rect x="1494" y="683" width="11" height="14" fill="#d9a441" opacity="0.65"/><rect x="1442" y="717" width="11" height="14" fill="#d9a441" opacity="0.65"/><rect x="1494" y="717" width="11" height="14" fill="#d9a441" opacity="0.65"/><rect x="1416" y="751" width="11" height="14" fill="#d9a441" opacity="0.65"/><rect x="1468" y="751" width="11" height="14" fill="#d9a441" opacity="0.65"/><rect x="1416" y="785" width="11" height="14" fill="#d9a441" opacity="0.65"/><rect x="1468" y="785" width="11" height="14" fill="#d9a441" opacity="0.65"/><rect x="1494" y="785" width="11" height="14" fill="#d9a441" opacity="0.65"/><rect x="1416" y="819" width="11" height="14" fill="#d9a441" opacity="0.65"/><rect x="1442" y="819" width="11" height="14" fill="#d9a441" opacity="0.65"/><rect x="1494" y="819" width="11" height="14" fill="#d9a441" opacity="0.65"/><rect x="1442" y="853" width="11" height="14" fill="#d9a441" opacity="0.65"/><rect x="1468" y="853" width="11" height="14" fill="#d9a441" opacity="0.65"/><rect x="1442" y="887" width="11" height="14" fill="#d9a441" opacity="0.65"/><rect x="1468" y="887" width="11" height="14" fill="#d9a441" opacity="0.65"/>
  <rect width="1410" height="1000" fill="url(#vig)"/>
  <rect width="1410" height="1000" filter="url(#grain)" opacity="0.06"/>
  <rect x="28" y="28" width="1354" height="944" fill="none" stroke="#1f262b" stroke-width="3" opacity="0.4"/>
  <g transform="translate(1260 868)" opacity="0.8">
    <rect width="96" height="104" rx="6" fill="none" stroke="#1f262b" stroke-width="3" stroke-dasharray="2 9"/>
    <text x="48" y="56" text-anchor="middle" font-family="Georgia, serif" font-size="46" font-weight="700" fill="#1f262b">P</text>
    <text x="48" y="84" text-anchor="middle" font-family="Georgia, serif" font-size="13" letter-spacing="2" fill="#1f262b">POSTED</text>
  </g>
</svg>